<?xml version="1.0" encoding="utf-8"?>
<!-- Generator: Adobe Illustrator 16.0.0, SVG Export Plug-In . SVG Version: 6.00 Build 0)  -->
<!DOCTYPE svg PUBLIC "-//W3C//DTD SVG 1.1//EN" "http://www.w3.org/Graphics/SVG/1.1/DTD/svg11.dtd">
<svg version="1.1" id="Layer_1" xmlns="http://www.w3.org/2000/svg" xmlns:xlink="http://www.w3.org/1999/xlink" x="0px" y="0px"
	 width="10px" height="15px" viewBox="0 0 10 15" enable-background="new 0 0 10 15" xml:space="preserve">
<g>
	<path fill="#25B269" d="M-60.375,2c0-2.957,0-5.631,0-7c-6,4.148-12.033,5-15,5h-2h-2v1.5V10c0,3.057,0,7.678,5.631,9.928
		C-73.623,19.977-73.498,20-73.373,20c0.396,0,0.771-0.238,0.928-0.629c0.205-0.513-0.043-1.094-0.557-1.299
		c-4.373-1.75-4.373-5.109-4.373-8.072h2c9,0,15,5,15,5s0-3.146,0-7c1.658,0,3-1.344,3-3C-57.375,3.343-58.717,2-60.375,2z"/>
	<path fill="#25B269" d="M-87.375,3v4c0,1.656,1.344,3,3,3h3V0h-3C-86.031,0-87.375,1.344-87.375,3z"/>
</g>
<path id="calendar-4" fill="#25B269" d="M-17.078,12.8h-2.659v-2.658h2.659V12.8z M-21.067,6.152h-2.659v2.66h2.659V6.152z
	 M-17.078,6.152h-2.659v2.66h2.659V6.152z M-25.057,10.142h-2.658V12.8h2.658V10.142z M-21.067,10.142h-2.659V12.8h2.659V10.142z
	 M-25.057,6.152h-2.658v2.66h2.658V6.152z M-14.418,0.833V15.46h-15.957V0.833h1.994v0.665c0,0.733,0.598,1.33,1.33,1.33
	c0.733,0,1.33-0.596,1.33-1.33V0.833h6.647v0.665c0,0.733,0.598,1.33,1.331,1.33c0.732,0,1.329-0.596,1.329-1.33V0.833H-14.418z
	 M-15.748,4.822h-13.298v9.309h13.298V4.822z M-17.078,0.168c0-0.367-0.297-0.665-0.664-0.665c-0.368,0-0.665,0.297-0.665,0.665
	v1.33c0,0.367,0.297,0.665,0.665,0.665c0.367,0,0.664-0.297,0.664-0.665V0.168z M-26.386,1.498c0,0.367-0.297,0.665-0.665,0.665
	c-0.367,0-0.664-0.297-0.664-0.665v-1.33c0-0.367,0.297-0.665,0.664-0.665c0.368,0,0.665,0.297,0.665,0.665V1.498z"/>
<path fill="#25B269" d="M4.973,0C2.227,0,0,2.227,0,4.974c0,4.476,4.973,9.946,4.973,9.946s4.974-5.471,4.974-9.946
	C9.946,2.227,7.72,0,4.973,0z M4.973,6.962c-1.098,0-1.989-0.891-1.989-1.989c0-1.099,0.892-1.99,1.989-1.99
	c1.1,0,1.99,0.891,1.99,1.99C6.963,6.071,6.072,6.962,4.973,6.962z"/>
</svg>
